<?xml version="1.0" standalone="no"?>
<!DOCTYPE svg PUBLIC "-//W3C//DTD SVG 20010904//EN"
 "http://www.w3.org/TR/2001/REC-SVG-20010904/DTD/svg10.dtd">
<svg version="1.0" xmlns="http://www.w3.org/2000/svg"
 width="600.000000pt" height="600.000000pt" viewBox="0 0 600.000000 600.000000"
 preserveAspectRatio="xMidYMid meet">
<metadata>
Created by potrace 1.11, written by Peter Selinger 2001-2013
</metadata>
<g transform="translate(0.000000,600.000000) scale(0.100000,-0.100000)"
fill="#000000" stroke="none">
<path d="M2072 5233 c-243 -420 -1705 -2990 -1705 -2998 0 -5 168 -309 373
-675 205 -366 397 -709 428 -763 30 -54 56 -97 57 -95 2 2 361 624 798 1383
994 1727 948 1648 962 1663 9 10 103 -148 438 -732 235 -410 427 -750 427
-756 0 -7 -285 -11 -865 -12 l-865 -3 357 -630 c197 -346 394 -694 438 -772
l80 -143 881 0 881 0 433 758 c239 416 438 764 443 772 6 11 -50 117 -217 405
-123 215 -520 901 -880 1525 l-655 1135 -885 3 -885 2 -39 -67z"/>
</g>
</svg>
