<svg height="600pt" preserveAspectRatio="xMidYMid meet" viewBox="0 0 600 600" width="600pt" xmlns="http://www.w3.org/2000/svg"><path d="m2072 5233c-243-420-1705-2990-1705-2998 0-5 168-309 373-675s397-709 428-763c30-54 56-97 57-95 2 2 361 624 798 1383 994 1727 948 1648 962 1663 9 10 103-148 438-732 235-410 427-750 427-756 0-7-285-11-865-12l-865-3 357-630c197-346 394-694 438-772l80-143h881 881l433 758c239 416 438 764 443 772 6 11-50 117-217 405-123 215-520 901-880 1525l-655 1135-885 3-885 2z" transform="matrix(.1 0 0 -.1 0 600)"/></svg>