<?xml version="1.0" standalone="no"?>
<!DOCTYPE svg PUBLIC "-//W3C//DTD SVG 20010904//EN"
 "http://www.w3.org/TR/2001/REC-SVG-20010904/DTD/svg10.dtd">
<svg version="1.0" xmlns="http://www.w3.org/2000/svg"
 width="1240.000000pt" height="1240.000000pt" viewBox="0 0 1240.000000 1240.000000"
 preserveAspectRatio="xMidYMid meet">
<metadata>
Created by potrace 1.11, written by Peter Selinger 2001-2013
</metadata>
<g transform="translate(0.000000,1240.000000) scale(0.100000,-0.100000)"
fill="#000000" stroke="none">
<path d="M4545 11640 c-97 -15 -108 -29 -273 -350 -224 -439 -353 -689 -479
-930 -39 -74 -107 -207 -153 -295 -45 -88 -106 -205 -135 -260 -54 -102 -128
-245 -275 -530 -45 -88 -106 -205 -135 -260 -29 -55 -92 -176 -140 -270 -48
-93 -110 -213 -138 -265 -27 -52 -92 -178 -144 -280 -53 -102 -108 -207 -123
-235 -15 -27 -72 -135 -125 -240 -54 -104 -121 -235 -150 -290 -29 -55 -85
-163 -125 -240 -151 -292 -214 -413 -265 -510 -29 -55 -90 -172 -135 -260 -45
-88 -114 -221 -153 -295 -38 -74 -101 -196 -139 -270 -39 -74 -99 -189 -133
-255 -35 -66 -91 -174 -125 -240 -34 -66 -66 -125 -72 -132 -6 -7 -7 -13 -3
-13 4 0 3 -6 -3 -12 -5 -7 -37 -65 -70 -128 -32 -63 -92 -178 -132 -255 -40
-77 -111 -214 -158 -305 -46 -91 -113 -219 -147 -285 -34 -66 -93 -178 -130
-250 -37 -71 -93 -179 -125 -240 -31 -60 -96 -184 -142 -275 -47 -91 -113
-218 -146 -282 -34 -65 -64 -133 -68 -152 -13 -71 1 -88 344 -430 180 -180
334 -331 342 -336 34 -22 69 -11 93 28 30 46 153 280 342 647 43 83 110 213
150 290 135 260 217 419 282 545 36 69 96 184 133 255 37 72 109 211 160 310
51 99 109 212 130 250 20 39 81 156 135 260 54 105 126 245 161 313 35 67 93
177 128 245 35 67 101 194 146 282 45 88 111 214 145 280 98 188 194 374 295
570 51 99 112 216 135 260 23 44 91 175 150 290 59 116 115 224 125 240 9 17
70 134 135 260 65 127 142 277 173 335 30 58 88 170 129 250 42 80 101 195
133 255 32 61 97 187 145 280 101 195 190 368 280 540 34 66 97 188 140 270
43 83 106 204 140 270 87 168 189 364 280 540 94 184 134 245 160 246 47 4
1025 4 1025 1 0 -7 -267 -520 -280 -537 -4 -5 -55 -104 -115 -220 -59 -115
-136 -264 -170 -330 -34 -66 -104 -201 -155 -300 -51 -99 -112 -216 -135 -260
-23 -44 -82 -156 -130 -250 -48 -93 -115 -222 -148 -285 -33 -63 -88 -169
-122 -235 -34 -66 -102 -196 -150 -290 -48 -93 -138 -267 -200 -385 -62 -118
-152 -291 -200 -385 -48 -93 -104 -201 -125 -240 -21 -38 -84 -160 -140 -270
-56 -110 -115 -222 -130 -250 -15 -27 -76 -144 -135 -260 -59 -115 -134 -259
-165 -320 -32 -60 -90 -173 -130 -250 -40 -77 -98 -189 -130 -250 -32 -60 -92
-177 -135 -260 -43 -82 -106 -204 -140 -270 -34 -66 -97 -187 -140 -270 -43
-82 -103 -199 -135 -260 -32 -60 -95 -182 -140 -270 -108 -209 -207 -399 -290
-560 -37 -71 -108 -209 -158 -305 -144 -281 -346 -671 -437 -845 -351 -670
-364 -701 -343 -766 10 -30 665 -689 697 -701 29 -10 63 7 85 45 24 40 78 143
193 367 50 96 106 204 125 240 19 36 83 160 143 275 59 116 129 251 155 300
26 50 66 128 90 175 24 47 45 87 48 90 2 3 1957 5 4345 5 3169 1 4347 4 4361
12 34 19 667 656 683 686 30 58 10 109 -212 532 -75 144 -181 348 -268 515
-41 80 -97 188 -124 240 -28 52 -90 172 -138 265 -139 269 -233 451 -295 570
-63 121 -154 295 -280 540 -45 88 -104 201 -130 250 -26 50 -87 167 -135 260
-48 94 -113 220 -145 280 -32 61 -94 182 -140 270 -45 88 -104 201 -130 250
-26 50 -82 158 -125 240 -92 177 -193 374 -280 540 -35 66 -95 183 -135 260
-40 77 -98 190 -130 250 -31 61 -94 182 -140 270 -153 296 -311 601 -405 780
-50 96 -104 200 -277 535 -45 85 -111 214 -148 285 -37 72 -100 193 -140 270
-40 77 -96 185 -125 240 -29 55 -101 195 -160 310 -388 757 -348 690 -428 724
-48 21 -54 21 -1680 19 -898 -1 -1650 -4 -1672 -8z m2900 -1305 c48 -93 109
-210 135 -260 26 -49 87 -168 136 -263 96 -187 138 -267 288 -557 54 -104 130
-251 169 -325 38 -74 93 -180 122 -235 29 -55 90 -172 135 -260 45 -88 108
-209 140 -270 31 -60 99 -191 150 -290 51 -99 119 -229 150 -290 31 -60 92
-177 135 -260 43 -82 103 -199 135 -260 62 -119 159 -306 290 -560 45 -88 111
-215 146 -282 136 -262 194 -373 267 -513 41 -80 107 -208 147 -285 40 -77
111 -214 157 -305 47 -91 104 -201 128 -245 23 -44 84 -161 135 -260 51 -99
118 -229 150 -290 133 -256 202 -388 272 -525 42 -80 114 -220 162 -311 47
-92 86 -168 86 -170 0 -8 -1042 -1 -1050 7 -5 5 -32 54 -60 109 -29 55 -83
159 -120 230 -37 72 -107 207 -155 300 -48 94 -111 215 -140 270 -29 55 -87
168 -130 250 -43 83 -103 200 -135 260 -32 61 -92 178 -135 260 -42 83 -98
191 -124 240 -26 50 -93 180 -150 290 -57 110 -130 250 -161 310 -31 61 -97
187 -145 280 -48 94 -111 215 -140 270 -29 55 -87 168 -130 250 -43 83 -105
202 -138 265 -103 198 -182 350 -262 505 -43 83 -99 191 -125 240 -26 50 -87
167 -135 260 -48 94 -116 224 -150 290 -97 185 -186 357 -260 500 -37 72 -95
184 -130 250 -34 66 -106 206 -160 310 -54 105 -111 214 -127 243 l-30 53 34
67 c168 326 339 655 416 802 30 58 59 113 64 124 9 16 12 15 32 -15 13 -19 62
-110 111 -204z m-1209 -1972 c168 -324 226 -435 279 -538 35 -66 95 -183 135
-260 83 -160 216 -416 270 -522 21 -39 41 -77 46 -85 5 -7 9 -15 9 -18 1 -5
26 -55 110 -215 29 -55 87 -167 130 -250 81 -157 165 -319 270 -520 198 -380
256 -496 252 -503 -3 -4 -696 -6 -1541 -4 l-1535 2 12 28 c11 24 80 158 252
487 29 55 96 186 150 290 54 105 124 240 155 300 32 61 92 178 135 260 43 83
99 191 125 240 26 50 96 185 155 300 59 116 125 242 145 280 21 39 71 135 112
215 42 80 120 231 174 335 54 105 103 200 108 212 6 13 14 23 17 23 3 0 19
-26 35 -57z m2066 -3983 c2 -3 24 -45 49 -95 25 -49 83 -162 129 -250 121
-234 208 -401 294 -567 45 -88 71 -148 64 -149 -17 -1 -5236 -1 -5267 0 -17 1
-21 4 -14 14 6 6 81 149 168 317 87 168 177 341 200 385 23 44 66 127 95 185
29 58 61 119 71 136 l18 30 2095 0 c1152 -1 2096 -3 2098 -6z"/>
</g>
</svg>
